<svg width="36" height="36" viewBox="0 0 36 36" fill="none" xmlns="http://www.w3.org/2000/svg">
<path d="M26 26V10H10V26H26ZM25.7778 8C26.3671 8 26.9324 8.23413 27.3491 8.65087C27.7659 9.06762 28 9.63285 28 10.2222V25.7778C28 26.3671 27.7659 26.9324 27.3491 27.3491C26.9324 27.7659 26.3671 28 25.7778 28H10.2222C9.63285 28 9.06762 27.7659 8.65087 27.3491C8.23413 26.9324 8 26.3671 8 25.7778V10.2222C8 8.98889 9 8 10.2222 8H25.7778ZM16.8889 13.5556C16.8889 12.9419 17.3864 12.4444 18 12.4444C18.6137 12.4444 19.1111 12.9419 19.1111 13.5556V16.8889H22.4444C23.0581 16.8889 23.5556 17.3864 23.5556 18C23.5556 18.6137 23.0581 19.1111 22.4444 19.1111H19.1111V22.4444C19.1111 23.0581 18.6137 23.5556 18 23.5556C17.3864 23.5556 16.8889 23.0581 16.8889 22.4444V19.1111H13.5556C12.9419 19.1111 12.4444 18.6137 12.4444 18C12.4444 17.3864 12.9419 16.8889 13.5556 16.8889H16.8889V13.5556Z" fill="#304879"/>
</svg>
